<?xml version="1.0" encoding="utf-8"?>
<!-- Generator: Adobe Illustrator 14.0.0, SVG Export Plug-In . SVG Version: 6.00 Build 43363)  -->
<!DOCTYPE svg PUBLIC "-//W3C//DTD SVG 1.1//EN" "http://www.w3.org/Graphics/SVG/1.1/DTD/svg11.dtd">
<svg version="1.1" id="Layer_10" xmlns="http://www.w3.org/2000/svg" xmlns:xlink="http://www.w3.org/1999/xlink" x="0px" y="0px"
	 width="1280px" height="1024px" viewBox="0 0 1280 1024" enable-background="new 0 0 1280 1024" xml:space="preserve">
<g id="Layer_16">
	<rect fill="#32DBFF" width="1280" height="785.57"/>
</g>
<g id="Layer_14">
	<linearGradient id="SVGID_1_" gradientUnits="userSpaceOnUse" x1="639.9995" y1="765.2441" x2="639.9995" y2="1024">
		<stop  offset="0" style="stop-color:#408E00"/>
		<stop  offset="1" style="stop-color:#00FF1E"/>
	</linearGradient>
	<rect y="765.244" fill="url(#SVGID_1_)" width="1280" height="258.756"/>
	<ellipse fill="#FFFC00" cx="198.158" cy="173.735" rx="101.643" ry="101.515"/>
	<ellipse fill="#FFFFFF" cx="938.738" cy="76.22" rx="37.885" ry="38.067"/>
	<ellipse fill="#FFFFFF" cx="1006.366" cy="73.087" rx="37.885" ry="38.067"/>
	<ellipse fill="#FFFFFF" cx="1079.816" cy="102.644" rx="37.885" ry="38.067"/>
	<ellipse fill="#FFFFFF" cx="1036.56" cy="62.336" rx="37.885" ry="38.067"/>
	<ellipse fill="#FFFFFF" cx="1121.02" cy="56.962" rx="37.885" ry="38.067"/>
	<ellipse fill="#FFFFFF" cx="965.162" cy="35.021" rx="37.885" ry="38.067"/>
	<ellipse fill="#FFFFFF" cx="938.738" cy="76.22" rx="37.885" ry="38.067"/>
	<ellipse fill="#FFFFFF" cx="1107.584" cy="10.383" rx="37.885" ry="38.067"/>
	<ellipse fill="#FFFFFF" cx="31.046" cy="328.092" rx="37.885" ry="38.067"/>
	<ellipse fill="#FFFFFF" cx="68.931" cy="368.844" rx="37.885" ry="38.067"/>
	<ellipse fill="#FFFFFF" cx="31.046" cy="404.225" rx="37.885" ry="38.067"/>
	<ellipse fill="#FFFFFF" cx="9.1" cy="435.576" rx="37.885" ry="38.067"/>
	<path fill="#FFFFFF" d="M-9.89,342.328c20.808-0.007,36.613-0.467,44.981,19.17c6.881,16.147-2.785,24.911-17.771,31.303
		c-11.806,5.036-31.07,9.058-38.461-4.056c-6.634-11.771-4.862-45.983,13.98-43.688"/>
	<path fill="#FFFFFF" d="M1058.591,77.405c-14.182-6.433-35.134-9.98-46.112-20.811c-9.574-9.445-12.346-19.334-23.834-27.964
		c-30.311-22.771,14.594-35.861,37.163-35.809c15.423,0.036,33.813-2.653,47.146,5.43c12.636,7.66,18.815,25.098,23.867,38.367
		c12.919,33.93-11.731,37.997-38.23,41.847c-1.277,0.186-2.861,0.041-4.093,0.304"/>
</g>
<g id="Layer_18">
	<path d="M908.974,601.039c0,0,19.014,5.31,41.333,1.732c3.72-0.597,7.532-1.439,11.362-2.594
		c17.955-3.458,28.64-14.473,36.607-28.146c1.328-2.279,2.58-4.631,3.785-7.03c5.002-11.403,10.244-23.206,16.438-34.429
		c1.549-2.806,3.157-5.574,4.829-8.299c1.529-2.848,3.259-5.762,5.167-8.674c1.907-2.912,3.993-5.824,6.236-8.668
		c2.306-2.406,4.671-4.911,7.076-7.402c10.759-11.037,36.687-26.384,40.759-24.037s-27,18-36.652,30.71
		c-2.234,2.518-4.377,5.162-6.383,7.937c-2.131,2.607-4.158,5.296-6.076,8.058c-1.918,2.761-3.727,5.595-5.417,8.495
		c-1.567,2.684-3.094,5.4-4.579,8.148c-5.943,10.991-11.177,22.551-16.7,33.816c-1.448,2.813-2.967,5.562-4.586,8.211
		c-8.099,13.247-18.738,24.036-35.952,28.244c-2.766,1.006-5.589,1.881-8.46,2.619c-5.743,1.476-11.677,2.407-17.719,2.756
		c-3.088,0.289-6.298,0.486-9.627,0.584c-6.658,0.197-13.795-0.001-21.442-0.655"/>
</g>
<g id="Layer_15">
</g>
<path d="M427.585,563.221c-1.292,0.574-45.862,42.051-45.862,42.051s-7.507,8.443-7.798,14.188s-0.219,3.654,0,1.29
	c0.221-2.364-4.643,65.269-3.869,74.298c0,0,0.148,2.58,1.105,4.128c0.959,1.548,1.732,1.806,2.506,1.806
	c0.774,0,2.354-2.58,2.354-2.58s1.895-2.445,2.555-5.747l1.2-9.784c0,0,1.876-47.121,1.588-61.483c0,0-2.011-3.736,6.176-10.2
	c0,0,43.103-38.935,44.093-40.504s0.934-2.828,0.861-5.026s-2.154-2.436-2.154-2.436S428.877,562.646,427.585,563.221z"/>
<path d="M604.649,632.229c-1.292,0.574-45.864,42.051-45.864,42.051s-7.506,8.443-7.797,14.188s-0.219,3.654,0,1.29
	c0.221-2.364-4.643,65.269-3.869,74.298c0,0,0.148,2.58,1.105,4.128c0.959,1.548,1.732,1.806,2.506,1.806s2.354-2.58,2.354-2.58
	s1.895-2.445,2.555-5.747l1.199-9.784c0,0,1.877-47.121,1.588-61.483c0,0-2.01-3.736,6.176-10.2c0,0,43.104-38.935,44.094-40.504
	s0.934-2.828,0.861-5.026c-0.073-2.198-2.154-2.436-2.154-2.436S605.94,631.654,604.649,632.229z"/>
<path fill="#582613" stroke="#231F20" d="M540.873,427.894c0,0,32.146-257.404,119.552-288.566
	c121.104-43.176,122.854-32.89,129.245-32.54c6.543,0.358,76.031,13.382,49.99,63.52c-26.963,51.914-58.736,56.47-60.3,92.534
	c-1.69,39.005,31.35,85.764,27.8,108.644c-3.675,23.7-15.887,38.905-10.426,73.441c5.908,37.363,25.354,80.805,26.403,122.799
	c1.126,45.093-15.65,70.543-71.698,54.377c-48.768-14.069-76.835-59.649-88.339-65.19c-11.057-5.326-54.973,0.994-61.452,24.069
	C594.975,604.757,539.831,478.447,540.873,427.894z"/>
<path fill="#0069A0" d="M553.056,431.076c0,0,30.461-231.516,86.441-261.454c0,0,6.362,30.937,21.249,34.62
	c15.992,3.958,42.4-3.869,35.989,16.979C690.106,242.775,558.485,434.366,553.056,431.076z"/>
<path fill="#0069A0" d="M648.958,164.223c0,0,5.804,29.701,18.942,22.757c13.567-7.17,18.05,0.204,33.115,3.908
	c16.128,3.967,9.425-7.778,6.971-10.841c-2.413-3.009-30.56-27.712-29.855-32.417C678.131,147.63,638.769,159.923,648.958,164.223z"
	/>
<path fill="#0069A0" d="M690.897,141.65c0,0,11.82-8.082,18.409-3.663c6.854,4.598,8.467,5.714,4.649,12.607
	c-3.837,6.928-7.582,8.349-12.857,6.972C695.948,156.223,685.422,150.244,690.897,141.65z"/>
<path fill="#0069A0" d="M709.598,166.698c0,0,5.815-16.86,12.974-11.829c7.463,5.246,6.453,7.174,5.584,8.562
	c-0.87,1.389-11.724,7.478-12.429,6.453C715.025,168.866,710.908,172.386,709.598,166.698z"/>
<path fill="#0069A0" d="M718.227,175.826c0,0,7.578-6.369,9.426-2.996c1.878,3.426,1.038,8.017-0.322,7.697
	C725.977,180.208,720.32,179.736,718.227,175.826z"/>
<path fill="#0069A0" d="M737.398,141.776c0,0-33.049-2.59-6.213-14.556c28.809-12.845,36.576-9.906,37.813-10.582
	c1.241-0.678,19.499,1.696,23.104,1.229c3.646-0.471,22.602,1.683,24.929,12.259c2.409,10.941-33.644,8.281-50.688,6.288
	C750.352,134.544,737.398,141.776,737.398,141.776z"/>
<path fill="#0069A0" d="M743.739,150.601c0,0-23.295,8.292,1.139,19.348c0,0,22.909-6.485,35.618-5.409
	c13.307,1.127,63.706-5.988,31.465-15.395C783.345,140.795,743.739,150.601,743.739,150.601z"/>
<path fill="#0069A0" d="M791.557,176.758c0,0,26.893,8.083,9.492,29.232c-17.315,21.043-22.669,30.8-22.669,30.8
	s-8.683,10.518-22.169-5.349c-12.475-14.679-33.317-13.905-31.352-20.653c1.947-6.679,7.248-36.961,17.544-33.196
	C753.196,181.537,782.018,168.09,791.557,176.758z"/>
<path fill="#0069A0" d="M701.7,209.355c-1.048-3.444,8.592-12.085,9.699-9.169c1.119,2.95,7.119,7.311,3.68,11.199
	C711.646,215.266,702.764,212.845,701.7,209.355z"/>
<path fill="#0069A0" d="M699.66,242.557c0,0,6.964-21.167,24.65-10.964c19.332,11.155,30.913,12.326,37.887,21.921
	c7.291,10.034,18.116,37.526,11.995,38.994c-6.035,1.447-41.443,0.125-48.758-4.869c-7.069-4.825-19.104-19.873-22.839-24.677
	C698.951,258.272,695.961,249.614,699.66,242.557z"/>
<path fill="#0069A0" d="M691.032,266.525c0.013-2.489-0.607-4.373-3.761-4.371c-3.119,0.001-10.693,7.736-14.876,14.589
	c-4.195,6.875-7.885,24.153-6.249,27.591c1.66,3.489,15.854,14.09,20.194,3.73C688.611,302.643,691.02,269.029,691.032,266.525z"/>
<path fill="#0069A0" d="M697.508,298.44c0,0,3.039-15.965,17.467-2.932c15.623,14.112,43.065,18.085,49.826,21.073
	c6.942,3.066,22.181,26.916,18.758,41.423c-3.493,14.797-22.084,20.798-31.229,13.429c-8.79-7.084-50.782-37.837-51.853-43.957
	C699.425,321.46,691.644,310.524,697.508,298.44z"/>
<path fill="#0069A0" d="M785.218,402.209c0,0-8.487,17.457,6.247,63.968c0,0-40.868-55.847-34.262-61.457
	C763.853,399.077,776.503,396.844,785.218,402.209z"/>
<path fill="#0069A0" d="M741.008,383.74c0,0,14.438,24.381,9.972,35.003c-4.505,10.719-16.389,11.566-21.289,2.487
	c0,0-31.03-22.631-40.8-47.102c-9.012-22.569,0.287-42.608,5.528-37.982"/>
<path fill="#0069A0" d="M556.898,449.286c0,0,97.719-150.573,118.199-124.576c23.536,29.876-27.308,69.477-30.358,72.662
	C641.695,400.551,568.451,454.521,556.898,449.286z"/>
<path fill="#0069A0" d="M558.868,467.48c0,0,109.884-81.366,121.27-61.294c12.34,21.76,15.567,28.128,15.439,45.031
	c-0.132,17.504-21.088,39.413-33.288,36.672c-11.737-2.638-43.398-19.246-49.27-8.193
	C607.106,490.828,558.868,467.48,558.868,467.48z"/>
<path fill="#0069A0" d="M562.851,489.191c0,0,21.367,55.92,29.81,57.276c8.679,1.395,52.079-23.625,62.049-14.615
	c10.438,9.429,33.89,11.32,37.341,22.612c3.555,11.632,22.186-24.532,14.668-33.531c-7.258-8.688-22.314-21.609-28.396-18.445
	c-6.021,3.132-34.083-6.732-37.023-3.088c-2.939,3.641-43.856,2.171-45.142,0.303C594.881,497.85,562.851,489.191,562.851,489.191z"
	/>
<path fill="#0069A0" d="M715.78,569.164c0,0,0.316-2.245,0.734-6.075c1.864-17.124,5.6-64.118-7.034-83.448
	c0,0,73.057,21.842,81.424,40.254c8.813,19.391,11.686,61.544-0.218,68.434c-11.729,6.791-62.688,8.469-74.59-21.409"/>
<path fill="#0069A0" d="M734.365,469.128c0,0-29.462-14.662-23.652-28.482c5.742-13.65,18.923-7.24,27.654-0.742
	c9.053,6.738,21.614,7.15,30.928,18.919c9.748,12.317,0.265,23.846-4.796,21.422C759.521,477.861,734.365,469.128,734.365,469.128z"
	/>
<ellipse fill="#0000CD" cx="865.657" cy="628.257" rx="56.692" ry="56.739"/>
<ellipse fill="#FC0094" cx="788.921" cy="659.938" rx="83.151" ry="83.219"/>
<ellipse fill="#FF6600" cx="677.803" cy="666.831" rx="114.115" ry="114.207"/>
<ellipse fill="#12FF00" cx="564.311" cy="628.257" rx="114.115" ry="114.207"/>
<ellipse fill="#8200C6" cx="478.362" cy="552.624" rx="114.114" ry="114.208"/>
<g id="Layer_17">
	<path d="M583.257,685.251c1.292,0.574,45.863,42.051,45.863,42.051s7.506,8.443,7.797,14.188s0.22,3.654,0,1.29
		s4.643,65.269,3.869,74.298c0,0-0.147,2.58-1.105,4.128s-1.732,1.806-2.506,1.806s-2.354-2.58-2.354-2.58s-1.895-2.445-2.555-5.747
		l-1.199-9.784c0,0-1.876-47.121-1.588-61.483c0,0,2.01-3.736-6.176-10.2c0,0-43.104-38.935-44.094-40.504s-0.934-2.828-0.861-5.026
		c0.073-2.198,2.154-2.436,2.154-2.436S581.966,684.677,583.257,685.251z"/>
	<path d="M697.951,701.236c1.292,0.574,45.863,42.051,45.863,42.051s7.506,8.443,7.797,14.188s0.22,3.654,0,1.29
		s4.644,65.269,3.869,74.298c0,0-0.147,2.58-1.105,4.128s-1.732,1.806-2.506,1.806s-2.354-2.58-2.354-2.58s-1.895-2.445-2.555-5.747
		l-1.199-9.784c0,0-1.876-47.121-1.588-61.483c0,0,2.01-3.736-6.176-10.2c0,0-43.104-38.935-44.094-40.504s-0.934-2.828-0.861-5.026
		c0.073-2.198,2.154-2.436,2.154-2.436S696.66,700.662,697.951,701.236z"/>
	<path d="M470.913,591.187c1.292,0.574,45.862,42.051,45.862,42.051s7.506,8.443,7.797,14.188s0.22,3.654,0,1.29
		s4.644,65.269,3.87,74.298c0,0-0.148,2.58-1.106,4.128s-1.732,1.806-2.506,1.806s-2.354-2.58-2.354-2.58s-1.894-2.445-2.554-5.747
		l-1.2-9.784c0,0-1.875-47.121-1.588-61.483c0,0,2.011-3.736-6.176-10.2c0,0-43.103-38.935-44.093-40.504s-0.934-2.828-0.861-5.026
		s2.154-2.436,2.154-2.436S469.622,590.612,470.913,591.187z"/>
	<path fill="#0069A0" d="M894.74,156.384"/>
	<path fill="#582613" stroke="#231F20" d="M537.863,452.32c0,0,100.444-297.504,321.542-262.822s215.843,47.688,223.528,52.023
		s72.714,53.202,13.466,86.572s-98.267,26.145-118.497,55.046s-3.985,67.216-17.166,80.573s-31.803,20.428-38.388,40.014
		s-1.616,41.09-13.375,59.239s-33.792,27.912-84.815,21.583s-76.578-28.623-90.752-31.924s-79.857-2.029-92.536,10.341
		C628.192,575.336,535.684,492.599,537.863,452.32z"/>
	<path fill="#0069A0" d="M564.311,457.831c0,0,96.805-245.212,237.857-242.322c0,0,0.225,45.782,27.286,59.741
		s74.748,19.739,54.518,38.525S575.574,461.714,564.311,457.831z"/>
	<path fill="#0069A0" d="M824.158,215.483c0,0-1.623,43.378,26.205,43.378s31.967,11.562,55.187,24.567s19.048-3.352,16.799-8.179
		s-37.317-54.011-33.512-59.766C888.837,215.483,804.807,201.007,824.158,215.483z"/>
	<path fill="#0069A0" d="M915.023,217.179c0,0,24.992-1.795,33.237,8.671s10.115,12.91,0,18.738s-16.956,5.121-24.841,0
		S900.572,224.404,915.023,217.179z"/>
	<path fill="#0069A0" d="M932.159,260.911c0,0,18.852-16.283,27.022-5.778s5.545,12.082,3.443,13.132s-22.063,1.576-22.587,0
		S931.108,268.265,932.159,260.911z"/>
	<path fill="#0069A0" d="M940.61,276.388c0,0,15.046-2.759,15.894,1.997c0.847,4.755-2.945,9.23-4.775,8.16
		C949.898,285.474,941.662,281.872,940.61,276.388z"/>
	<path fill="#0069A0" d="M989.288,249.133c0,0-49.899-25.294,0-21.465s58.305,12.232,60.405,12.232s23.637,13.657,28.364,15.233
		s25.213,14.211,20.485,26.015s-45.126-9.044-65.635-20.681S989.288,249.133,989.288,249.133z"/>
	<path fill="#0069A0" d="M992.965,263.012c0,0-39.396-4.518-9.98,21.641c0,0,34.73,5.148,50.194,12.502s75.344,22.586,46.979,0
		S992.965,263.012,992.965,263.012z"/>
	<path fill="#0069A0" d="M1039.188,313.963c0,0,25.801,18.384-6.009,29.94s-43.365,17.859-43.365,17.859
		s-15.961,5.778-25.052-12.606s-38.962-26.789-32.693-32.566s30.431-34.667,43.037-25.212S1032.884,301.357,1039.188,313.963z"/>
	<path fill="#0069A0" d="M897.5,303.831c0-4.202,19.499-8.404,19.729-4.727s7.123,11.153,0,13.456S897.5,308.033,897.5,303.831z"/>
	<path fill="#0069A0" d="M878.964,336.549c0,0,20.485-17.859,42.021,0s36.243,23.112,40.445,33.617s4.239,34.667-3.658,34.142
		s-52.545-11.556-60.424-17.859s-19.074-23.637-22.669-29.415S870.119,341.802,878.964,336.549z"/>
	<path fill="#0069A0" d="M855.345,355.833c1.027-2.325,0.814-4.348-4.202-5.626s-20.396,3.031-29.879,7.879
		s-21.597,19.435-20.021,23.112s20.64,17.367,30.991,9.98C837.696,387.279,854.317,358.158,855.345,355.833z"/>
	<path fill="#0069A0" d="M852.782,386.582c0,0,10.791-12.776,26.657,3.09s49.505,26.021,56.486,29.83s14.447,23.196,4.685,31.908
		s-33.401,9.346-41.574,3s-53.235-38.08-52.601-43.158S839.453,394.916,852.782,386.582z"/>
	<path fill="#0069A0" d="M925.408,478.621c0,0-15.617,8.957-15.745,35.7c0,0-26.557-35.741-16.822-38.183
		C902.575,473.698,917.764,474.219,925.408,478.621z"/>
	<path fill="#0069A0" d="M880.709,460.402c0,0,8.886,17.538,0,23.28s-23.482,4.713-26.656-1.437c0,0-33.689-19.478-40.011-38.519
		s14.298-32.368,20.49-27.291"/>
	<path fill="#0069A0" d="M571.62,473.253c0,0,211.931-101.352,237.344-71.522s-63.442,47.948-69.154,49.679
		S594.469,479.403,571.62,473.253z"/>
	<path fill="#0069A0" d="M574.793,487.47c0,0,205.763-39.303,217.124-22.854s13.992,20.962,9.186,31.399
		s-38.445,21.096-54.946,18.305s-62.832-17.129-74.257-10.595S574.793,487.47,574.793,487.47z"/>
	<path fill="#0069A0" d="M581.511,503.727c0,0,34.536,38.136,48.5,39.472s83.963-10.09,96.564-4.377s43.065,7.932,44.97,13.804
		s33.003-11.264,26.021-16.342s-23.482-13.329-32.368-12.06s-46.967-6.981-52.044-5.077s-70.31-3.036-72.283-4.374
		C638.896,513.435,581.511,503.727,581.511,503.727z"/>
	<path fill="#0069A0" d="M797.021,560.624c0,0,0.89-1.051,2.272-2.856c6.279-8.201,22.732-31.973,12.286-43.624
		c0,0,77.524,17.188,80.513,26.479c2.989,9.29-6.327,27.604-19.726,30.263c-13.397,2.66-67.706,2.646-74.456-11.312"/>
	<path fill="#0069A0" d="M845.122,510.667c0,0-32.578-11.57-21.11-19.153c11.469-7.583,26.144-1.915,34.776,3.006
		c8.634,4.921,22.982,6.534,29.576,13.914c6.595,7.38-7.258,12.544-12.041,10.884S845.122,510.667,845.122,510.667z"/>
	<g>
		<path fill="#FFFFFF" d="M323.663,327.892c1.562,4.125,5.585,6.934,8.148,10.433c2.31,3.153,4.6,6.313,6.736,9.494
			c2.34,3.487,4.436,6.713,7.541,9.659c2.596,2.464,6.822,4.099,9.079,6.841c0.392,0.477,0.986,0.83,1.327,1.287
			c-3.154,2.229-6.123,4.49-9.402,6.411c-3.567,2.092-6.711,4.847-10.221,7.124c-3.512,2.28-6.782,3.677-9.968,6.662
			c-2.818,2.64-5.463,5.84-7.887,8.822c-2.428,2.989-5.137,6.296-9.32,5.959c-0.703-5.654,1.88-10.371,3.132-15.853
			c1.453-6.361,1.805-13.061,2.762-19.545c1.716-11.638,1.868-23.957,6.135-34.875c0.218-0.56,0.318-1.052,0.591-1.611"/>
		<path fill="#FF5EE3" d="M310.319,403.599c0,0,19.745-30.477,12.455-77.861C322.774,325.738,295.131,357.424,310.319,403.599z"/>
		<path fill="none" stroke="#000000" stroke-width="4" d="M312.027,402.879c-13.013-22.528-4.013-49.528,4.987-72.528c2-4,7-4,9-1
			c8,12,15,25,27.303,33.447c2.486,1.659,4.871,2.658,7.019,2.661c0,0-3.429,1.317-8.655,4.026
			c-12.667,6.865-24.667,14.865-34.992,27.335C315.064,398.745,313.501,400.763,312.027,402.879z"/>
		<path fill="#FFFFFF" d="M491.352,401.757c0,0-23.39-26.787-46.799-35.294s0,0.679,0,0.679l1.436-2.474l8.963-6.248l7.798-8.467
			l6.124-8.535l5.584-8.59l3.903-4.963h5.021L491.352,401.757z"/>
		<path fill="#FF5EE3" d="M492.433,403.599c0,0-19.745-30.477-12.455-77.861C479.978,325.738,507.621,357.424,492.433,403.599z"/>
		<path fill="none" stroke="#000000" stroke-width="4" d="M490.725,402.879c13.013-22.528,4.013-49.528-4.987-72.528c-2-4-7-4-9-1
			c-8,12-15,25-27.303,33.447c-2.486,1.659-4.871,2.658-7.019,2.661c0,0,3.429,1.317,8.655,4.026
			c12.667,6.865,24.667,14.865,34.992,27.335C487.688,398.745,489.251,400.763,490.725,402.879z"/>
		<g>
			<ellipse fill="#FFFFFF" cx="401.251" cy="468.571" rx="111.247" ry="110.784"/>
			<g>
				<path fill="none" stroke="#000000" stroke-width="4" d="M512.975,468.583c0,61.373-49.781,111.127-111.188,111.127
					c-26.865,0-51.506-9.523-70.726-25.377c-2.747-2.266-5.384-4.662-7.907-7.188c-22.903-23.073-35.903-57.073-31.983-89.927
					c0.381-3.734,0.946-7.416,1.687-11.033c10.368-50.641,55.198-88.733,108.929-88.733c15.352,0,29.977,3.109,43.28,8.733
					c3.325,1.405,6.57,2.973,9.721,4.696c19.464,10.191,35.464,27.191,45.374,45.922c1.464,2.769,2.821,5.607,4.069,8.513
					c1.414,3.329,2.663,6.738,3.746,10.22C511.225,445.975,512.975,457.075,512.975,468.583z"/>
				<path d="M401.25,460.022c-10.493,0-19,6.407-19,14.312c0,1.37,0.271,2.69,0.748,3.945c1.623-1.587,4.1-2.636,6.696-2.636
					c4.105,0,6.947,2.617,6.35,5.846c-0.401,2.164-2.249,4.049-4.659,5.059c2.878,1.322,6.247,2.098,9.865,2.098
					c3.636,0,7.021-0.783,9.909-2.117c-2.387-1.016-4.215-2.89-4.613-5.04c-0.598-3.228,2.245-5.845,6.35-5.845
					c2.561,0,5.007,1.019,6.63,2.568c0.461-1.234,0.725-2.532,0.725-3.878C420.251,466.429,411.745,460.022,401.25,460.022z"/>
				<path d="M373.224,496.016v6.911c0,0,11.932,8.684,28.563,8.507s28.504-7.708,28.504-7.708v-7.71c0,0-12.702,5.849-28.504,5.849
					S373.224,496.016,373.224,496.016z"/>
				<path fill="none" stroke="#000000" stroke-width="2" d="M373.017,473.392c-10.766-0.319-21.766-0.319-32.398,0.037
					c-3.633-0.037-7.287-0.114-10.942-0.204c-21.426-0.152-42.426-1.152-63.385-3.033c-3.227-0.238-6.453-0.483-9.675-0.728
					c-22.563-1.714-44.956-3.399-67.331-5.752"/>
				<path fill="none" stroke="#000000" stroke-width="2" d="M373.017,472.296c-3.506,0.052-7.015,0.065-10.525,0.04
					c-3.512-0.024-7.026-0.088-10.55-0.187c-6.406-0.005-12.767-0.169-19.096-0.492c-3.165-0.16-6.321-0.361-9.474-0.602
					c-17.685-0.969-35.253-3.457-52.484-7.053c-3.447-0.717-6.881-1.479-10.306-2.276c-3.833-0.868-7.659-1.773-11.51-2.679
					c-16.913-2.954-32.868-8.966-49.226-14.252"/>
				<path fill="none" stroke="#000000" stroke-width="2" d="M371.928,472.697c-23.677-1.624-48.677-2.624-72.996-9.787
					c-5.925-1.577-11.787-3.412-17.563-5.556c-3.046-1.063-6.083-2.169-9.114-3.311c-2.273-0.856-4.543-1.732-6.81-2.628
					c-2.265-0.911-4.526-1.841-6.781-2.803c-13.414-6.54-27.414-12.54-40.212-20.299"/>
				<path fill="none" stroke="#000000" stroke-width="2" d="M430.291,474.296c10.766-0.319,21.766-0.319,32.398,0.037
					c3.633-0.037,7.287-0.114,10.942-0.204c21.426-0.152,42.426-1.152,63.385-3.033c3.227-0.238,6.453-0.483,9.675-0.728
					c22.563-1.714,44.956-3.399,67.331-5.752"/>
				<path fill="none" stroke="#000000" stroke-width="2" d="M430.291,473.201c3.506,0.052,7.015,0.065,10.525,0.04
					c3.512-0.024,7.026-0.088,10.55-0.187c6.406-0.005,12.767-0.169,19.096-0.492c3.165-0.16,6.321-0.361,9.474-0.602
					c17.685-0.969,35.253-3.457,52.484-7.053c3.447-0.717,6.881-1.479,10.306-2.276c3.833-0.868,7.659-1.773,11.51-2.679
					c16.913-2.954,32.868-8.966,49.226-14.252"/>
				<path fill="none" stroke="#000000" stroke-width="2" d="M431.38,473.601c23.677-1.624,48.677-2.624,72.996-9.787
					c5.925-1.577,11.787-3.412,17.563-5.556c3.046-1.063,6.083-2.169,9.114-3.311c2.273-0.856,4.543-1.732,6.81-2.628
					c2.265-0.911,4.526-1.841,6.781-2.803c13.414-6.54,27.414-12.54,40.212-20.299"/>
				<polyline points="373.224,422.821 358.336,438.417 352.665,433.278 373.224,410.77 394.313,432.682 388.819,438.417 				"/>
				<polyline points="430.026,422.821 415.138,438.417 409.467,433.278 430.026,410.77 451.115,432.682 445.621,438.417 				"/>
			</g>
		</g>
	</g>
	<path fill="#00FF1E" stroke="#000000" stroke-width="6" d="M342.847,852.003h13.457l-7.519,49.621l63.711-49.621H432.1
		l-73.848,57.261l63.921,65.169h-17.372l-57.834-58.965l-9.215,58.965H324.39L342.847,852.003z"/>
	<path fill="#00FF1E" stroke="#000000" stroke-width="6" d="M447.144,883.879h12.263l-13.184,90.554h-12.732L447.144,883.879z
		 M457.334,846.593c2.844,0,5.288,0.915,7.329,2.746s3.062,4.023,3.062,6.575c0,2.608-1.021,4.814-3.062,6.617
		c-2.041,1.804-4.485,2.705-7.329,2.705c-2.908,0-5.366-0.901-7.375-2.705c-2.011-1.803-3.015-4.009-3.015-6.617
		c0-2.552,1.004-4.744,3.015-6.575C451.968,847.508,454.426,846.593,457.334,846.593z"/>
	<path fill="#00FF1E" stroke="#000000" stroke-width="6" d="M503.647,850.005h12.704l-5.03,33.874h20.325l-1.484,10.154h-20.348
		l-11.94,80.399h-12.985l12.122-80.399h-17.317l1.577-10.154h17.271L503.647,850.005z"/>
	<path fill="#00FF1E" stroke="#000000" stroke-width="6" d="M568.032,850.005h12.704l-5.03,33.874h20.325l-1.484,10.154h-20.348
		l-11.94,80.399h-12.985l12.122-80.399h-17.317l1.577-10.154h17.271L568.032,850.005z"/>
	<path fill="#00FF1E" stroke="#000000" stroke-width="6" d="M707.173,931.486h-89.99c-0.186,10.766,2.937,19.226,9.37,25.385
		c6.432,6.159,14.998,9.238,25.698,9.238c7.112,0,13.698-1.303,19.761-3.911c6.061-2.607,11.07-6.27,15.029-10.986l9.648,7.074
		c-4.887,5.605-11.271,10.085-19.158,13.441c-7.885,3.356-16.406,5.035-25.559,5.035c-15.834,0-27.725-4.396-35.671-13.191
		c-7.948-8.794-11.921-18.685-11.921-29.671c0-8.989,2.674-17.645,8.025-25.968c5.349-8.323,12.508-14.801,21.477-19.435
		c8.968-4.632,18.678-6.949,29.131-6.949c12.926,0,23.626,3.926,32.1,11.777c8.473,7.852,12.71,17.853,12.71,30.004
		C707.822,925.55,707.605,928.269,707.173,931.486z M695.298,921.332c-0.371-8.519-3.618-15.421-9.741-20.704
		c-6.123-5.284-13.823-7.927-23.101-7.927c-10.082,0-18.972,2.545-26.672,7.636c-7.7,5.09-13.159,12.089-16.375,20.995H695.298z"/>
	<path fill="#00FF1E" stroke="#000000" stroke-width="6" d="M734.742,883.879h13.012l-1.756,11.396
		c3.467-4.325,7.646-7.695,12.537-10.107c4.893-2.412,9.908-3.619,15.049-3.619c3.652,0,7.463,0.777,11.426,2.33l-6.123,10.653
		c-3.213-1.165-5.898-1.747-8.059-1.747c-4.508,0-8.969,1.416-13.385,4.245c-4.416,2.832-7.996,6.953-10.744,12.364
		s-5.074,14.305-6.977,26.68l-5.902,38.358h-12.731L734.742,883.879z"/>
	<path fill="#00FF1E" stroke="#000000" stroke-width="6" d="M841.416,852.003l-1.762,11.069c-4.744-3.995-9.203-5.993-13.375-5.993
		c-2.656,0-4.934,1.128-6.832,3.383c-1.896,2.255-3.383,6.821-4.457,13.696l-1.457,9.721h21.203l-1.391,10.154h-21.332
		l-12.047,80.399h-12.73l12.121-80.399h-12.121l1.393-10.154h12.26l1.205-7.989c1.504-9.377,3.105-15.647,4.799-18.811
		c1.691-3.162,4.199-5.701,7.523-7.615s6.994-2.871,11.008-2.871C830.691,846.593,836.023,848.396,841.416,852.003z"/>
	<path fill="#00FF1E" stroke="#000000" stroke-width="6" d="M859.504,848.923h12.637l-18.828,125.51H840.58L859.504,848.923z"/>
	<path fill="#00FF1E" stroke="#000000" stroke-width="6" d="M881.68,883.879h13.366l26.094,66.862l43.387-66.862h14.469
		l-80.143,123.679h-14.575l28.589-44.065L881.68,883.879z"/>
</g>
<g id="Layer_11_copy">
</g>
</svg>
